<svg version="1.1" id="Layer_1" xmlns="http://www.w3.org/2000/svg" xmlns:xlink="http://www.w3.org/1999/xlink" x="0px" y="0px"
	 width="100%" viewBox="0 0 352 256" enable-background="new 0 0 352 256" xml:space="preserve">
<path fill="#000000" opacity="1.000000" stroke="none" 
	d="
M220.966873,170.377151 
	C214.307785,170.379486 208.129074,170.125504 201.983231,170.465408 
	C197.287811,170.725098 195.937149,168.853104 195.959625,164.395126 
	C196.084747,139.570938 195.996506,114.745674 195.987976,89.920784 
	C195.986038,84.256119 196.093384,78.589989 195.993469,72.927292 
	C195.928680,69.254829 197.136032,67.467804 201.201218,67.610161 
	C210.682129,67.942154 220.306702,66.968651 229.634460,68.254654 
	C245.573608,70.452164 254.500443,79.718399 255.764328,95.712242 
	C257.009094,111.464470 257.070618,127.397415 255.718018,143.144073 
	C254.274460,159.949905 242.019180,170.113205 224.960220,170.356049 
	C223.794083,170.372650 222.627670,170.369995 220.966873,170.377151 
M234.071228,83.303131 
	C227.519257,79.285446 220.241699,80.478958 213.146393,80.415169 
	C210.584396,80.392120 210.331833,82.197609 210.332230,84.190292 
	C210.336838,107.488197 210.342072,130.786133 210.301743,154.083969 
	C210.297409,156.582336 211.274918,157.772385 213.838379,157.715500 
	C217.331406,157.637985 220.829742,157.769211 224.321274,157.662399 
	C234.662292,157.346008 241.519806,150.700790 241.675690,140.323624 
	C241.888092,126.182167 241.760941,112.034981 241.710175,97.890511 
	C241.689240,92.057632 239.488815,87.219917 234.071228,83.303131 
z"/>
<path fill="#000000" opacity="1.000000" stroke="none" 
	d="
M112.802238,75.100266 
	C112.925888,67.697960 112.931076,67.516098 119.713226,67.709702 
	C131.508026,68.046402 143.400635,66.349937 155.086945,68.684708 
	C169.928070,71.649757 178.960144,84.111771 178.149841,99.782372 
	C177.330093,115.635551 167.325012,126.529282 152.140579,128.486145 
	C145.815125,129.301331 139.496216,129.167358 133.185669,129.015106 
	C128.759247,128.908310 126.959671,130.179443 127.121864,134.937408 
	C127.456528,144.754913 127.058197,154.595749 127.293129,164.419052 
	C127.399940,168.885452 126.020485,171.074783 121.330750,170.399078 
	C120.677773,170.304993 119.988625,170.304031 119.335274,170.395752 
	C114.413597,171.086563 112.473145,169.244492 112.700775,164.043289 
	C113.079178,155.397308 112.786491,146.722214 112.787132,138.059387 
	C112.788689,117.235298 112.796432,96.411201 112.802238,75.100266 
M131.843781,80.377747 
	C128.419144,79.996849 127.107635,81.481293 127.173019,84.950027 
	C127.338860,93.748253 127.327278,102.552376 127.214104,111.351921 
	C127.173843,114.482712 128.230011,115.959671 131.501709,115.869949 
	C136.977676,115.719803 142.467621,115.944450 147.936005,115.683243 
	C156.626343,115.268120 162.882141,108.607285 163.605362,99.343277 
	C164.291382,90.555832 158.961472,83.165703 150.630966,81.180328 
	C144.714249,79.770218 138.720596,80.658653 131.843781,80.377747 
z"/>
</svg>